<mxfile host="65bd71144e" modified="2021-02-09T15:44:25.645Z" agent="5.0 (Macintosh; Intel Mac OS X 10_14_6) AppleWebKit/537.36 (KHTML, like Gecko) Code/1.53.0 Chrome/87.0.4280.141 Electron/11.2.1 Safari/537.36" version="14.2.4" etag="N5-5t3diDoTWcrxd_C-5" type="embed">
    <diagram id="78tXD200iO1u-6yRj8Dy" name="Page-1">
        <mxGraphModel dx="859" dy="1910" grid="1" gridSize="10" guides="1" tooltips="1" connect="1" arrows="1" fold="1" page="1" pageScale="1" pageWidth="827" pageHeight="1169" math="0" shadow="0">
            <root>
                <mxCell id="0"/>
                <mxCell id="1" parent="0"/>
                <mxCell id="4" value="&lt;div style=&quot;text-align: left&quot;&gt;&lt;span&gt;1. GEE functions to generate and download binary land/&amp;nbsp; &amp;nbsp; &amp;nbsp; &amp;nbsp; &amp;nbsp; water rasters&lt;/span&gt;&lt;/div&gt;&lt;div style=&quot;text-align: left&quot;&gt;&lt;span&gt;2. Local postprocessing:&amp;nbsp;&lt;/span&gt;&lt;/div&gt;&lt;div style=&quot;text-align: left&quot;&gt;&lt;span&gt;2.1. Contour extraction&amp;nbsp;&lt;/span&gt;&lt;/div&gt;&lt;div style=&quot;text-align: left&quot;&gt;&lt;span&gt;2.2. Transects&amp;nbsp;&lt;/span&gt;&lt;/div&gt;&lt;div style=&quot;text-align: left&quot;&gt;&lt;span&gt;2.3. Intersections&amp;nbsp;&lt;/span&gt;&lt;/div&gt;&lt;div style=&quot;text-align: left&quot;&gt;2.4. Statistics&lt;/div&gt;" style="rounded=0;whiteSpace=wrap;html=1;align=center;" vertex="1" parent="1">
                    <mxGeometry x="40" y="40" width="320" height="160" as="geometry"/>
                </mxCell>
                <mxCell id="6" value="&lt;h2&gt;&lt;b&gt;&lt;font color=&quot;#ccccff&quot;&gt;Main processing&lt;/font&gt;&lt;/b&gt;&lt;/h2&gt;" style="text;html=1;align=left;verticalAlign=middle;resizable=0;points=[];autosize=1;" vertex="1" parent="1">
                    <mxGeometry x="40" width="160" height="50" as="geometry"/>
                </mxCell>
                <mxCell id="7" value="&lt;h2&gt;&lt;b&gt;&lt;font color=&quot;#ccccff&quot;&gt;Validation&lt;/font&gt;&lt;/b&gt;&lt;/h2&gt;" style="text;html=1;align=left;verticalAlign=middle;resizable=0;points=[];autosize=1;" vertex="1" parent="1">
                    <mxGeometry x="40" y="200" width="100" height="50" as="geometry"/>
                </mxCell>
            </root>
        </mxGraphModel>
    </diagram>
</mxfile>